<mxfile host="app.diagrams.net" modified="2021-11-16T05:07:50.007Z" agent="5.0 (Windows NT 10.0; Win64; x64) AppleWebKit/537.36 (KHTML, like Gecko) Chrome/95.0.4638.69 Safari/537.36" etag="L2L5mNVQGuUFtz5PnAgn" version="15.5.2" type="github">
  <diagram id="gL_wUWIlyWYQwBvoQ-ae" name="Page-1">
    <mxGraphModel dx="1550" dy="1661" grid="1" gridSize="10" guides="1" tooltips="1" connect="1" arrows="1" fold="1" page="1" pageScale="1" pageWidth="1169" pageHeight="826" math="0" shadow="0">
      <root>
        <mxCell id="0" />
        <mxCell id="1" parent="0" />
        <mxCell id="g5z8_eeaWqmI7RCORXG6-46" value="" style="shape=folder;fontStyle=1;spacingTop=10;tabWidth=100;tabHeight=20;tabPosition=left;html=1;" vertex="1" parent="1">
          <mxGeometry x="10" y="-30" width="1150" height="510" as="geometry" />
        </mxCell>
        <mxCell id="g5z8_eeaWqmI7RCORXG6-41" value="" style="shape=folder;fontStyle=1;spacingTop=10;tabWidth=80;tabHeight=20;tabPosition=left;html=1;" vertex="1" parent="1">
          <mxGeometry x="500" y="100" width="650" height="360" as="geometry" />
        </mxCell>
        <mxCell id="g5z8_eeaWqmI7RCORXG6-30" value="" style="shape=folder;fontStyle=1;spacingTop=10;tabWidth=80;tabHeight=20;tabPosition=left;html=1;" vertex="1" parent="1">
          <mxGeometry x="20" y="100" width="460" height="280" as="geometry" />
        </mxCell>
        <mxCell id="g5z8_eeaWqmI7RCORXG6-1" value="GameObjects&#xa;{{abstract}}" style="swimlane;fontStyle=1;align=center;verticalAlign=top;childLayout=stackLayout;horizontal=1;startSize=42;horizontalStack=0;resizeParent=1;resizeParentMax=0;resizeLast=0;collapsible=1;marginBottom=0;" vertex="1" parent="1">
          <mxGeometry x="480" y="10" width="160" height="50" as="geometry" />
        </mxCell>
        <mxCell id="g5z8_eeaWqmI7RCORXG6-3" value="" style="line;strokeWidth=1;fillColor=none;align=left;verticalAlign=middle;spacingTop=-1;spacingLeft=3;spacingRight=3;rotatable=0;labelPosition=right;points=[];portConstraint=eastwest;" vertex="1" parent="g5z8_eeaWqmI7RCORXG6-1">
          <mxGeometry y="42" width="160" height="8" as="geometry" />
        </mxCell>
        <mxCell id="g5z8_eeaWqmI7RCORXG6-5" value="Extends" style="endArrow=block;endSize=16;endFill=0;html=1;rounded=0;entryX=0;entryY=0.5;entryDx=0;entryDy=0;exitX=0.5;exitY=0;exitDx=0;exitDy=0;" edge="1" parent="1" source="g5z8_eeaWqmI7RCORXG6-8" target="g5z8_eeaWqmI7RCORXG6-1">
          <mxGeometry width="160" relative="1" as="geometry">
            <mxPoint x="380" y="170" as="sourcePoint" />
            <mxPoint x="330" y="120" as="targetPoint" />
          </mxGeometry>
        </mxCell>
        <mxCell id="g5z8_eeaWqmI7RCORXG6-6" value="Stationary&#xa;{{abstract}}" style="swimlane;fontStyle=1;align=center;verticalAlign=top;childLayout=stackLayout;horizontal=1;startSize=42;horizontalStack=0;resizeParent=1;resizeParentMax=0;resizeLast=0;collapsible=1;marginBottom=0;" vertex="1" parent="1">
          <mxGeometry x="730" y="130" width="160" height="50" as="geometry" />
        </mxCell>
        <mxCell id="g5z8_eeaWqmI7RCORXG6-7" value="" style="line;strokeWidth=1;fillColor=none;align=left;verticalAlign=middle;spacingTop=-1;spacingLeft=3;spacingRight=3;rotatable=0;labelPosition=right;points=[];portConstraint=eastwest;" vertex="1" parent="g5z8_eeaWqmI7RCORXG6-6">
          <mxGeometry y="42" width="160" height="8" as="geometry" />
        </mxCell>
        <mxCell id="g5z8_eeaWqmI7RCORXG6-8" value="Moveable&#xa;{{abstract}}" style="swimlane;fontStyle=1;align=center;verticalAlign=top;childLayout=stackLayout;horizontal=1;startSize=42;horizontalStack=0;resizeParent=1;resizeParentMax=0;resizeLast=0;collapsible=1;marginBottom=0;" vertex="1" parent="1">
          <mxGeometry x="180" y="150" width="160" height="50" as="geometry" />
        </mxCell>
        <mxCell id="g5z8_eeaWqmI7RCORXG6-9" value="" style="line;strokeWidth=1;fillColor=none;align=left;verticalAlign=middle;spacingTop=-1;spacingLeft=3;spacingRight=3;rotatable=0;labelPosition=right;points=[];portConstraint=eastwest;" vertex="1" parent="g5z8_eeaWqmI7RCORXG6-8">
          <mxGeometry y="42" width="160" height="8" as="geometry" />
        </mxCell>
        <mxCell id="g5z8_eeaWqmI7RCORXG6-14" value="Katch" style="swimlane;fontStyle=1;align=center;verticalAlign=top;childLayout=stackLayout;horizontal=1;startSize=42;horizontalStack=0;resizeParent=1;resizeParentMax=0;resizeLast=0;collapsible=1;marginBottom=0;" vertex="1" parent="1">
          <mxGeometry x="290" y="250" width="160" height="50" as="geometry" />
        </mxCell>
        <mxCell id="g5z8_eeaWqmI7RCORXG6-15" value="" style="line;strokeWidth=1;fillColor=none;align=left;verticalAlign=middle;spacingTop=-1;spacingLeft=3;spacingRight=3;rotatable=0;labelPosition=right;points=[];portConstraint=eastwest;" vertex="1" parent="g5z8_eeaWqmI7RCORXG6-14">
          <mxGeometry y="42" width="160" height="8" as="geometry" />
        </mxCell>
        <mxCell id="g5z8_eeaWqmI7RCORXG6-16" value="Bigleg" style="swimlane;fontStyle=1;align=center;verticalAlign=top;childLayout=stackLayout;horizontal=1;startSize=42;horizontalStack=0;resizeParent=1;resizeParentMax=0;resizeLast=0;collapsible=1;marginBottom=0;" vertex="1" parent="1">
          <mxGeometry x="30" y="250" width="160" height="50" as="geometry" />
        </mxCell>
        <mxCell id="g5z8_eeaWqmI7RCORXG6-17" value="" style="line;strokeWidth=1;fillColor=none;align=left;verticalAlign=middle;spacingTop=-1;spacingLeft=3;spacingRight=3;rotatable=0;labelPosition=right;points=[];portConstraint=eastwest;" vertex="1" parent="g5z8_eeaWqmI7RCORXG6-16">
          <mxGeometry y="42" width="160" height="8" as="geometry" />
        </mxCell>
        <mxCell id="g5z8_eeaWqmI7RCORXG6-18" value="Wall" style="swimlane;fontStyle=1;align=center;verticalAlign=top;childLayout=stackLayout;horizontal=1;startSize=42;horizontalStack=0;resizeParent=1;resizeParentMax=0;resizeLast=0;collapsible=1;marginBottom=0;" vertex="1" parent="1">
          <mxGeometry x="810" y="280" width="160" height="50" as="geometry" />
        </mxCell>
        <mxCell id="g5z8_eeaWqmI7RCORXG6-19" value="" style="line;strokeWidth=1;fillColor=none;align=left;verticalAlign=middle;spacingTop=-1;spacingLeft=3;spacingRight=3;rotatable=0;labelPosition=right;points=[];portConstraint=eastwest;" vertex="1" parent="g5z8_eeaWqmI7RCORXG6-18">
          <mxGeometry y="42" width="160" height="8" as="geometry" />
        </mxCell>
        <mxCell id="g5z8_eeaWqmI7RCORXG6-20" value="Block" style="swimlane;fontStyle=1;align=center;verticalAlign=top;childLayout=stackLayout;horizontal=1;startSize=42;horizontalStack=0;resizeParent=1;resizeParentMax=0;resizeLast=0;collapsible=1;marginBottom=0;" vertex="1" parent="1">
          <mxGeometry x="960" y="210" width="160" height="50" as="geometry" />
        </mxCell>
        <mxCell id="g5z8_eeaWqmI7RCORXG6-21" value="" style="line;strokeWidth=1;fillColor=none;align=left;verticalAlign=middle;spacingTop=-1;spacingLeft=3;spacingRight=3;rotatable=0;labelPosition=right;points=[];portConstraint=eastwest;" vertex="1" parent="g5z8_eeaWqmI7RCORXG6-20">
          <mxGeometry y="42" width="160" height="8" as="geometry" />
        </mxCell>
        <mxCell id="g5z8_eeaWqmI7RCORXG6-22" value="Pop" style="swimlane;fontStyle=1;align=center;verticalAlign=top;childLayout=stackLayout;horizontal=1;startSize=42;horizontalStack=0;resizeParent=1;resizeParentMax=0;resizeLast=0;collapsible=1;marginBottom=0;" vertex="1" parent="1">
          <mxGeometry x="150" y="320" width="160" height="50" as="geometry" />
        </mxCell>
        <mxCell id="g5z8_eeaWqmI7RCORXG6-23" value="" style="line;strokeWidth=1;fillColor=none;align=left;verticalAlign=middle;spacingTop=-1;spacingLeft=3;spacingRight=3;rotatable=0;labelPosition=right;points=[];portConstraint=eastwest;" vertex="1" parent="g5z8_eeaWqmI7RCORXG6-22">
          <mxGeometry y="42" width="160" height="8" as="geometry" />
        </mxCell>
        <mxCell id="g5z8_eeaWqmI7RCORXG6-24" value="Extends" style="endArrow=block;endSize=16;endFill=0;html=1;rounded=0;entryX=1;entryY=0.75;entryDx=0;entryDy=0;exitX=0.5;exitY=0;exitDx=0;exitDy=0;" edge="1" parent="1" source="g5z8_eeaWqmI7RCORXG6-6" target="g5z8_eeaWqmI7RCORXG6-1">
          <mxGeometry width="160" relative="1" as="geometry">
            <mxPoint x="735" y="155" as="sourcePoint" />
            <mxPoint x="845" y="80" as="targetPoint" />
          </mxGeometry>
        </mxCell>
        <mxCell id="g5z8_eeaWqmI7RCORXG6-26" value="Extends" style="endArrow=block;endSize=16;endFill=0;html=1;rounded=0;entryX=0.75;entryY=1;entryDx=0;entryDy=0;exitX=0.5;exitY=0;exitDx=0;exitDy=0;" edge="1" parent="1" source="g5z8_eeaWqmI7RCORXG6-14" target="g5z8_eeaWqmI7RCORXG6-8">
          <mxGeometry width="160" relative="1" as="geometry">
            <mxPoint x="520" y="290" as="sourcePoint" />
            <mxPoint x="370" y="227.5" as="targetPoint" />
          </mxGeometry>
        </mxCell>
        <mxCell id="g5z8_eeaWqmI7RCORXG6-25" value="Extends" style="endArrow=block;endSize=16;endFill=0;html=1;rounded=0;exitX=0.5;exitY=0;exitDx=0;exitDy=0;entryX=0.25;entryY=1;entryDx=0;entryDy=0;" edge="1" parent="1" source="g5z8_eeaWqmI7RCORXG6-16" target="g5z8_eeaWqmI7RCORXG6-8">
          <mxGeometry width="160" relative="1" as="geometry">
            <mxPoint x="100" y="282" as="sourcePoint" />
            <mxPoint x="230" y="222" as="targetPoint" />
          </mxGeometry>
        </mxCell>
        <mxCell id="g5z8_eeaWqmI7RCORXG6-27" value="Extends" style="endArrow=block;endSize=16;endFill=0;html=1;rounded=0;exitX=0.5;exitY=0;exitDx=0;exitDy=0;entryX=0.5;entryY=1;entryDx=0;entryDy=0;" edge="1" parent="1" source="g5z8_eeaWqmI7RCORXG6-18" target="g5z8_eeaWqmI7RCORXG6-6">
          <mxGeometry width="160" relative="1" as="geometry">
            <mxPoint x="585" y="280" as="sourcePoint" />
            <mxPoint x="685" y="220" as="targetPoint" />
          </mxGeometry>
        </mxCell>
        <mxCell id="g5z8_eeaWqmI7RCORXG6-28" value="Extends" style="endArrow=block;endSize=16;endFill=0;html=1;rounded=0;exitX=0.25;exitY=0;exitDx=0;exitDy=0;" edge="1" parent="1" source="g5z8_eeaWqmI7RCORXG6-20">
          <mxGeometry width="160" relative="1" as="geometry">
            <mxPoint x="950" y="270" as="sourcePoint" />
            <mxPoint x="890" y="180" as="targetPoint" />
          </mxGeometry>
        </mxCell>
        <mxCell id="g5z8_eeaWqmI7RCORXG6-29" value="Extends" style="endArrow=block;endSize=16;endFill=0;html=1;rounded=0;exitX=0.5;exitY=0;exitDx=0;exitDy=0;" edge="1" parent="1" source="g5z8_eeaWqmI7RCORXG6-22">
          <mxGeometry width="160" relative="1" as="geometry">
            <mxPoint x="890" y="392.5" as="sourcePoint" />
            <mxPoint x="260" y="200" as="targetPoint" />
          </mxGeometry>
        </mxCell>
        <mxCell id="g5z8_eeaWqmI7RCORXG6-31" value="ExtraLife" style="swimlane;fontStyle=1;align=center;verticalAlign=top;childLayout=stackLayout;horizontal=1;startSize=42;horizontalStack=0;resizeParent=1;resizeParentMax=0;resizeLast=0;collapsible=1;marginBottom=0;" vertex="1" parent="1">
          <mxGeometry x="510" y="370" width="160" height="50" as="geometry" />
        </mxCell>
        <mxCell id="g5z8_eeaWqmI7RCORXG6-32" value="" style="line;strokeWidth=1;fillColor=none;align=left;verticalAlign=middle;spacingTop=-1;spacingLeft=3;spacingRight=3;rotatable=0;labelPosition=right;points=[];portConstraint=eastwest;" vertex="1" parent="g5z8_eeaWqmI7RCORXG6-31">
          <mxGeometry y="42" width="160" height="8" as="geometry" />
        </mxCell>
        <mxCell id="g5z8_eeaWqmI7RCORXG6-33" value="PopClones" style="swimlane;fontStyle=1;align=center;verticalAlign=top;childLayout=stackLayout;horizontal=1;startSize=42;horizontalStack=0;resizeParent=1;resizeParentMax=0;resizeLast=0;collapsible=1;marginBottom=0;" vertex="1" parent="1">
          <mxGeometry x="710" y="370" width="160" height="50" as="geometry" />
        </mxCell>
        <mxCell id="g5z8_eeaWqmI7RCORXG6-34" value="" style="line;strokeWidth=1;fillColor=none;align=left;verticalAlign=middle;spacingTop=-1;spacingLeft=3;spacingRight=3;rotatable=0;labelPosition=right;points=[];portConstraint=eastwest;" vertex="1" parent="g5z8_eeaWqmI7RCORXG6-33">
          <mxGeometry y="42" width="160" height="8" as="geometry" />
        </mxCell>
        <mxCell id="g5z8_eeaWqmI7RCORXG6-35" value="PowerUp&#xa;{{abstract}}" style="swimlane;fontStyle=1;align=center;verticalAlign=top;childLayout=stackLayout;horizontal=1;startSize=42;horizontalStack=0;resizeParent=1;resizeParentMax=0;resizeLast=0;collapsible=1;marginBottom=0;" vertex="1" parent="1">
          <mxGeometry x="610" y="230" width="160" height="50" as="geometry" />
        </mxCell>
        <mxCell id="g5z8_eeaWqmI7RCORXG6-36" value="" style="line;strokeWidth=1;fillColor=none;align=left;verticalAlign=middle;spacingTop=-1;spacingLeft=3;spacingRight=3;rotatable=0;labelPosition=right;points=[];portConstraint=eastwest;" vertex="1" parent="g5z8_eeaWqmI7RCORXG6-35">
          <mxGeometry y="42" width="160" height="8" as="geometry" />
        </mxCell>
        <mxCell id="g5z8_eeaWqmI7RCORXG6-37" value="Extends" style="endArrow=block;endSize=16;endFill=0;html=1;rounded=0;entryX=0;entryY=1;entryDx=0;entryDy=0;exitX=0.5;exitY=0;exitDx=0;exitDy=0;" edge="1" parent="1" source="g5z8_eeaWqmI7RCORXG6-35" target="g5z8_eeaWqmI7RCORXG6-6">
          <mxGeometry width="160" relative="1" as="geometry">
            <mxPoint x="750" y="460" as="sourcePoint" />
            <mxPoint x="620" y="350" as="targetPoint" />
          </mxGeometry>
        </mxCell>
        <mxCell id="g5z8_eeaWqmI7RCORXG6-38" value="Extends" style="endArrow=block;endSize=16;endFill=0;html=1;rounded=0;entryX=0.25;entryY=1;entryDx=0;entryDy=0;exitX=0.55;exitY=-0.02;exitDx=0;exitDy=0;exitPerimeter=0;" edge="1" parent="1" source="g5z8_eeaWqmI7RCORXG6-31" target="g5z8_eeaWqmI7RCORXG6-35">
          <mxGeometry width="160" relative="1" as="geometry">
            <mxPoint x="590" y="400" as="sourcePoint" />
            <mxPoint x="680" y="340" as="targetPoint" />
          </mxGeometry>
        </mxCell>
        <mxCell id="g5z8_eeaWqmI7RCORXG6-39" value="Extends" style="endArrow=block;endSize=16;endFill=0;html=1;rounded=0;entryX=0.75;entryY=1;entryDx=0;entryDy=0;exitX=0.5;exitY=0;exitDx=0;exitDy=0;" edge="1" parent="1" source="g5z8_eeaWqmI7RCORXG6-33" target="g5z8_eeaWqmI7RCORXG6-35">
          <mxGeometry width="160" relative="1" as="geometry">
            <mxPoint x="780" y="530" as="sourcePoint" />
            <mxPoint x="670" y="440" as="targetPoint" />
          </mxGeometry>
        </mxCell>
        <mxCell id="g5z8_eeaWqmI7RCORXG6-40" value="Moveable" style="text;html=1;strokeColor=none;fillColor=none;align=center;verticalAlign=middle;whiteSpace=wrap;rounded=0;" vertex="1" parent="1">
          <mxGeometry x="30" y="90" width="60" height="40" as="geometry" />
        </mxCell>
        <mxCell id="g5z8_eeaWqmI7RCORXG6-43" value="Stationary" style="text;html=1;strokeColor=none;fillColor=none;align=center;verticalAlign=middle;whiteSpace=wrap;rounded=0;" vertex="1" parent="1">
          <mxGeometry x="510" y="95" width="60" height="30" as="geometry" />
        </mxCell>
        <mxCell id="g5z8_eeaWqmI7RCORXG6-47" value="GameObjects" style="text;html=1;strokeColor=none;fillColor=none;align=center;verticalAlign=middle;whiteSpace=wrap;rounded=0;" vertex="1" parent="1">
          <mxGeometry x="30" y="-40" width="60" height="40" as="geometry" />
        </mxCell>
      </root>
    </mxGraphModel>
  </diagram>
</mxfile>
